<svg width="208" height="25" viewBox="0 0 208 25" fill="none" xmlns="http://www.w3.org/2000/svg">
<g id="logo-white">
<g id="Group 3">
<mask id="mask0_2_227" style="mask-type:luminance" maskUnits="userSpaceOnUse" x="0" y="4" width="15" height="21">
<path id="Clip 2" fill-rule="evenodd" clip-rule="evenodd" d="M0 4.67569H14.2885V24.4555H0V4.67569Z" fill="white"/>
</mask>
<g mask="url(#mask0_2_227)">
<path id="Fill 1" fill-rule="evenodd" clip-rule="evenodd" d="M7.60351 7.66769C9.03651 7.66769 10.2815 8.41669 10.9555 9.09169V14.0997C10.2815 14.7517 9.03651 15.4737 7.60351 15.4737C5.12051 15.4737 3.38551 13.8787 3.38551 11.5967C3.38551 9.28369 5.12051 7.66769 7.60351 7.66769ZM10.9555 5.94269C10.1115 5.29169 8.80251 4.67569 6.86851 4.67569C2.88851 4.67569 -0.000488281 7.58669 -0.000488281 11.5967C-0.000488281 15.5127 2.95251 18.4657 6.86851 18.4657C8.40851 18.4657 9.83551 18.0197 10.9555 17.1977V18.0337C10.9555 21.1057 8.42751 21.4377 7.34151 21.4377C5.10251 21.4377 3.44851 20.3857 2.90451 20.0397L2.55251 19.8157L1.79051 22.8947L2.20651 23.1107C3.10051 23.5807 4.76351 24.4557 7.34151 24.4557C11.6255 24.4557 14.2885 21.7837 14.2885 17.4817V4.91269H10.9555V5.94269Z" fill="white"/>
</g>
</g>
<path id="Fill 4" fill-rule="evenodd" clip-rule="evenodd" d="M27.9868 4.67599C26.4658 4.67599 25.3508 5.26799 24.5288 6.52799C24.1088 5.29899 23.1538 4.67599 21.6818 4.67599C20.4598 4.67599 19.1828 5.06399 18.7998 5.41099L18.6898 5.51099L18.9278 8.27199L19.3428 8.01699C19.6448 7.832 20.1698 7.61499 20.6568 7.61499C21.1648 7.61499 21.4598 7.81999 21.4598 8.865V19.254H24.7928L24.7868 11.183C25.2428 8.90599 26.1598 7.79899 27.5918 7.79899C28.6968 7.79899 29.5048 8.15299 29.7308 8.50199L30.1288 9.11699L30.7998 5.86699L30.7388 5.76599C30.4068 5.22299 29.4278 4.67599 27.9868 4.67599Z" fill="white"/>
<path id="Fill 6" fill-rule="evenodd" clip-rule="evenodd" d="M37.4214 10.5607C37.7264 8.95371 39.0164 7.43171 41.3564 7.43171C43.7494 7.43171 44.6024 8.82371 44.6024 10.1257C44.6024 10.2477 44.5944 10.3997 44.5804 10.5607H37.4214ZM47.5274 13.0807C47.6944 12.5507 47.8304 11.4257 47.8304 10.5727C47.8304 7.65871 46.1434 4.54471 41.4084 4.54471C37.0634 4.54471 33.9104 7.73171 33.9104 12.1227C33.9104 16.8177 36.8014 19.6217 41.6454 19.6217C43.9144 19.6217 46.0064 18.9357 47.5354 17.6887L47.7294 17.5307L46.3654 15.0377L46.0884 15.2447C45.5014 15.6857 43.9014 16.7087 41.7244 16.7087C39.2334 16.7087 37.7324 15.5287 37.3654 13.2897H47.4614L47.5274 13.0807Z" fill="white"/>
<path id="Fill 8" fill-rule="evenodd" clip-rule="evenodd" d="M55.5713 10.5607C55.8763 8.95371 57.1663 7.43171 59.5063 7.43171C61.8993 7.43171 62.7523 8.82371 62.7523 10.1257C62.7523 10.2477 62.7443 10.3997 62.7303 10.5607H55.5713ZM65.6773 13.0807C65.8443 12.5507 65.9803 11.4257 65.9803 10.5727C65.9803 7.65871 64.2933 4.54471 59.5583 4.54471C55.2133 4.54471 52.0603 7.73171 52.0603 12.1227C52.0603 16.8177 54.9513 19.6217 59.7953 19.6217C62.0643 19.6217 64.1563 18.9357 65.6853 17.6887L65.8793 17.5307L64.5153 15.0377L64.2383 15.2447C63.6513 15.6857 62.0513 16.7087 59.8743 16.7087C57.3833 16.7087 55.8823 15.5287 55.5153 13.2897H65.6113L65.6773 13.0807Z" fill="white"/>
<path id="Fill 10" fill-rule="evenodd" clip-rule="evenodd" d="M86.5103 16.1486C86.0513 16.4286 85.6063 16.5776 85.2223 16.5776C84.8043 16.5776 84.4193 16.4256 84.4193 15.3276V11.0456C84.4193 7.0576 82.3713 4.6756 78.9433 4.6756C77.1493 4.6756 75.6073 5.3046 74.5143 6.4636V4.9126H71.1813V19.2536H74.5143V10.5146C74.9603 9.1556 76.2023 7.7986 77.9973 7.7986C79.9603 7.7986 81.0863 9.1356 81.0863 11.4656V15.9316C81.0863 18.3106 82.1333 19.5166 84.1973 19.5166C85.3513 19.5166 86.3983 19.1716 86.9943 18.8496L87.1663 18.7556L86.9253 15.8956L86.5103 16.1486Z" fill="white"/>
<path id="Fill 12" fill-rule="evenodd" clip-rule="evenodd" d="M109.078 15.5309C108.418 16.0099 107.238 16.5249 106.207 16.5249C104.924 16.5249 104.301 15.7639 104.301 14.1979V7.66791H109.661V4.91291H104.301V1.41891H101.309L100.994 4.91291H98.3931V7.66791H100.968V14.7229C100.968 17.7689 102.581 19.5159 105.393 19.5159C107.633 19.5159 109.301 18.7779 110.306 18.1579L110.524 18.0239L109.385 15.3089L109.078 15.5309Z" fill="white"/>
<path id="Fill 14" fill-rule="evenodd" clip-rule="evenodd" d="M130.282 16.1413C129.72 16.4513 129.344 16.5773 128.982 16.5773C128.565 16.5773 128.179 16.4263 128.179 15.3283V11.0453C128.179 7.05731 126.132 4.67631 122.703 4.67631C120.89 4.67631 119.349 5.29331 118.275 6.43231V0.000305176H114.942V19.2533H118.275V10.5153C118.72 9.15531 119.963 7.7993 121.758 7.7993C123.72 7.7993 124.846 9.13531 124.846 11.4653V15.9323C124.846 18.3103 125.893 19.5163 127.957 19.5163C129.149 19.5163 130.185 19.1703 130.759 18.8473L130.927 18.7523L130.688 15.9183L130.282 16.1413Z" fill="white"/>
<path id="Fill 16" fill-rule="evenodd" clip-rule="evenodd" d="M150.212 16.1452C149.695 16.4442 149.288 16.5772 148.892 16.5772C148.516 16.5772 148.115 16.4802 148.115 15.3282V4.91321H144.782V14.1842C144.499 14.7732 143.521 16.3942 141.326 16.3942C139.161 16.3942 138.237 15.3122 138.237 12.7792V4.91321H134.904V13.1732C134.904 17.2042 136.891 19.5162 140.354 19.5162C142.341 19.5162 143.953 18.9102 145.057 17.7542C145.502 18.9242 146.454 19.5162 147.893 19.5162C148.86 19.5162 149.968 19.2542 150.716 18.8492L150.891 18.7552L150.617 15.9102L150.212 16.1452Z" fill="white"/>
<path id="Fill 18" fill-rule="evenodd" clip-rule="evenodd" d="M179.894 16.1452C179.399 16.4322 178.956 16.5772 178.574 16.5772C178.19 16.5772 177.797 16.4292 177.797 15.3282V11.0452C177.797 6.99821 175.86 4.67621 172.479 4.67621C170.373 4.67621 168.603 5.57121 167.535 7.15321C166.716 5.47021 165.199 4.65021 162.916 4.65021C161.183 4.65021 159.687 5.26821 158.619 6.40621V4.91321H155.286V19.2532H158.619V10.4102C158.838 9.74221 159.674 7.79921 161.944 7.79921C164.388 7.79921 164.901 9.77921 164.901 11.4392V19.2532H168.234V10.3812C168.623 9.12421 169.674 7.79921 171.481 7.79921C174.076 7.79921 174.464 10.0962 174.464 11.4652V15.9322C174.464 18.3102 175.511 19.5162 177.576 19.5162C178.543 19.5162 179.706 19.2412 180.403 18.8472L180.573 18.7502L180.299 15.9102L179.894 16.1452Z" fill="white"/>
<path id="Fill 20" fill-rule="evenodd" clip-rule="evenodd" d="M195.66 12.07C195.66 14.735 193.965 16.525 191.442 16.525C189.99 16.525 188.738 15.803 188.064 15.151V9.094C188.786 8.389 190.024 7.668 191.442 7.668C193.965 7.668 195.66 9.437 195.66 12.07ZM192.177 4.676C190.603 4.676 189.168 5.134 188.064 5.977V0H184.731V19.254H188.064V18.169C188.915 18.862 190.233 19.516 192.177 19.516C196.236 19.516 199.072 16.454 199.072 12.07C199.072 7.716 196.236 4.676 192.177 4.676Z" fill="white"/>
<g id="Group 24">
<mask id="mask1_2_227" style="mask-type:luminance" maskUnits="userSpaceOnUse" x="203" y="15" width="5" height="5">
<path id="Clip 23" fill-rule="evenodd" clip-rule="evenodd" d="M203.696 15.2902H208V19.5682H203.696V15.2902Z" fill="white"/>
</mask>
<g mask="url(#mask1_2_227)">
<path id="Fill 22" fill-rule="evenodd" clip-rule="evenodd" d="M205.835 15.2902C204.495 15.2902 203.696 16.0902 203.696 17.4302C203.696 18.7892 204.475 19.5682 205.835 19.5682C207.211 19.5682 208.001 18.7892 208.001 17.4302C208.001 16.0902 207.191 15.2902 205.835 15.2902Z" fill="white"/>
</g>
</g>
</g>
</svg>
